<?xml version="1.0" standalone="no"?>
<!DOCTYPE svg PUBLIC "-//W3C//DTD SVG 20010904//EN"
 "http://www.w3.org/TR/2001/REC-SVG-20010904/DTD/svg10.dtd">
<svg version="1.0" xmlns="http://www.w3.org/2000/svg"
 width="256.000000pt" height="256.000000pt" viewBox="0 0 256.000000 256.000000"
 preserveAspectRatio="xMidYMid meet">
<metadata>
Created by potrace 1.11, written by Peter Selinger 2001-2013
</metadata>
<g transform="translate(0.000000,256.000000) scale(0.100000,-0.100000)"
fill="#000000" stroke="none">
<path d="M686 2338 c-25 -7 -57 -28 -86 -57 -52 -52 -70 -102 -70 -195 l0 -56
-105 0 -105 0 0 -110 0 -110 105 0 105 0 0 -210 0 -210 -105 0 -105 0 0 -110
0 -110 105 0 105 0 0 -210 0 -210 -105 0 -105 0 0 -110 0 -110 104 0 103 0 5
-80 c6 -99 39 -159 112 -205 l49 -30 661 -3 c457 -2 677 0 712 8 63 13 124 63
153 123 21 43 21 51 21 938 0 1009 5 939 -79 1011 -47 40 -104 58 -185 58
l-56 0 -2 -374 -3 -374 -130 78 c-105 64 -133 76 -148 68 -11 -5 -70 -41 -133
-79 l-114 -68 -2 372 -3 372 -330 2 c-204 0 -345 -3 -369 -9z m59 -418 l0
-105 -107 -3 -108 -3 0 111 0 111 108 -3 107 -3 0 -105z m0 -640 l0 -105 -107
-3 -108 -3 0 111 0 111 108 -3 107 -3 0 -105z m0 -640 l0 -105 -107 -3 -108
-3 0 111 0 111 108 -3 107 -3 0 -105z"/>
</g>
</svg>
